<?xml version="1.0" encoding="utf-8"?>
<!-- Generator: Adobe Illustrator 21.0.2, SVG Export Plug-In . SVG Version: 6.00 Build 0)  -->
<svg version="1.1" id="레이어_1" xmlns="http://www.w3.org/2000/svg" xmlns:xlink="http://www.w3.org/1999/xlink" x="0px"
	 y="0px" viewBox="0 0 34 34" style="enable-background:new 0 0 34 34;" xml:space="preserve">
<style type="text/css">
	.st0{fill-rule:evenodd;clip-rule:evenodd;fill:#979797;}
	.st1{fill-rule:evenodd;clip-rule:evenodd;fill:#FFFFFF;}
</style>
<circle class="st0" cx="17" cy="17" r="16.5"/>
<g>
	<path class="st1" d="M25.6,21.6L25.6,21.6c-0.4,0.4-1,0.4-1.4,0l-7.8-7.8c-0.4-0.4-0.4-1,0-1.4l0,0c0.4-0.4,1-0.4,1.4,0l7.8,7.8
		C26,20.6,26,21.2,25.6,21.6z"/>
	<path class="st1" d="M8.4,21.6L8.4,21.6c-0.4-0.4-0.4-1,0-1.4l7.8-7.8c0.4-0.4,1-0.4,1.4,0l0,0c0.4,0.4,0.4,1,0,1.4l-7.8,7.8
		C9.4,22,8.8,22,8.4,21.6z"/>
</g>
</svg>
